<svg aria-hidden="true" style="position: absolute; width: 0; height: 0; overflow: hidden;" version="1.1" xmlns="http://www.w3.org/2000/svg" xmlns:xlink="http://www.w3.org/1999/xlink">
<defs>
<symbol id="icon-bar-graph" viewBox="0 0 32 32">
<path d="M27.2 1.6h-3.2c-0.883 0-1.6 0.715-1.6 1.6v27.187h6.4v-27.187c0-0.885-0.715-1.6-1.6-1.6zM17.6 11.2h-3.2c-0.883 0-1.6 0.715-1.6 1.6v17.587h6.4v-17.587c0-0.885-0.715-1.6-1.6-1.6zM8 20.8h-3.2c-0.883 0-1.6 0.715-1.6 1.6v7.987h6.4v-7.987c0-0.885-0.715-1.6-1.6-1.6z"></path>
</symbol>
<symbol id="icon-bell" viewBox="0 0 32 32">
<path d="M23.44 13.619c-3.648-7.851-5.546-10.834-11.506-10.709-2.123 0.043-1.614-1.539-3.234-0.939-1.616 0.6-0.229 1.478-1.883 2.837-4.643 3.813-4.216 7.339-2.062 15.744 0.907 3.541-2.187 3.714-0.963 7.144 0.894 2.502 7.486 3.55 14.44 0.971 6.955-2.581 11.338-7.702 10.443-10.205-1.224-3.432-3.698-1.538-5.235-4.843zM17.478 26.552c-6.211 2.304-11.315 0.95-11.531 0.347-0.371-1.040 2.005-4.506 9.106-7.141s11.064-1.658 11.478-0.498c0.245 0.686-2.84 4.986-9.053 7.291zM15.482 20.962c-3.246 1.205-5.502 2.582-6.965 3.822 1.029 0.934 2.955 1.162 4.874 0.45 2.443-0.904 3.946-2.986 3.352-4.646-0.008-0.021-0.018-0.037-0.026-0.058-0.402 0.131-0.813 0.274-1.235 0.432z"></path>
</symbol>
<symbol id="icon-cog" viewBox="0 0 32 32">
<path d="M26.853 16c0-1.678 1.034-3 2.587-3.909-0.282-0.934-0.651-1.832-1.107-2.675-1.742 0.456-3.152-0.226-4.338-1.413-1.186-1.184-1.549-2.594-1.093-4.338-0.843-0.456-1.741-0.829-2.675-1.106-0.909 1.552-2.552 2.584-4.227 2.584-1.677 0-3.318-1.032-4.229-2.584-0.936 0.277-1.83 0.65-2.674 1.106 0.456 1.744 0.094 3.154-1.094 4.338-1.184 1.187-2.594 1.869-4.338 1.413-0.456 0.843-0.827 1.741-1.106 2.675 1.552 0.909 2.584 2.23 2.584 3.909 0 1.675-1.032 3.318-2.584 4.229 0.28 0.934 0.65 1.83 1.106 2.675 1.744-0.456 3.154-0.094 4.338 1.091 1.186 1.187 1.55 2.597 1.094 4.338 0.843 0.456 1.739 0.829 2.675 1.109 0.909-1.557 2.552-2.587 4.229-2.587 1.675 0 3.318 1.032 4.229 2.587 0.934-0.282 1.83-0.653 2.675-1.109-0.456-1.741-0.094-3.15 1.093-4.338 1.186-1.184 2.595-1.866 4.338-1.413 0.456-0.843 0.827-1.738 1.107-2.675-1.557-0.91-2.59-2.232-2.59-3.907zM16 21.843c-3.229 0-5.845-2.616-5.845-5.843 0-3.229 2.618-5.846 5.845-5.846 3.229 0 5.843 2.619 5.843 5.846 0 3.229-2.614 5.843-5.843 5.843z"></path>
</symbol>
<symbol id="icon-home" viewBox="0 0 32 32">
<path d="M29.875 17.6h-2.675v9.6c0 0.712-0.31 1.6-1.6 1.6h-6.4v-9.6h-6.4v9.6h-6.4c-1.29 0-1.6-0.888-1.6-1.6v-9.6h-2.675c-0.957 0-0.752-0.518-0.096-1.197l12.838-12.851c0.312-0.323 0.722-0.483 1.133-0.499 0.411 0.016 0.821 0.174 1.133 0.499l12.837 12.85c0.658 0.68 0.862 1.198-0.094 1.198z"></path>
</symbol>
<symbol id="icon-stopwatch" viewBox="0 0 32 32">
<path d="M11.802 10.792c-0.715 0.44 1.915 6.787 2.557 7.821 0.56 0.91 1.749 1.187 2.653 0.63 0.909-0.563 1.192-1.75 0.632-2.656-0.635-1.037-5.128-6.237-5.842-5.795zM11.266 3.843c1.485-0.517 3.075-0.803 4.734-0.803s3.25 0.286 4.734 0.803c0.526 0.182 1.224-0.184 0.915-0.978-0.226-0.576-0.443-1.139-0.531-1.368-0.21-0.542-0.96-0.99-1.286-1.064-1.235-0.278-2.515-0.434-3.832-0.434s-2.597 0.155-3.834 0.434c-0.326 0.074-1.075 0.522-1.285 1.064-0.088 0.229-0.307 0.792-0.531 1.368-0.309 0.794 0.389 1.162 0.915 0.978zM30.557 5.098c-0.307-0.368-0.634-0.728-0.981-1.075-0.346-0.347-0.706-0.672-1.072-0.981-0.245-0.206-0.965-0.374-1.421 0.082-0.454 0.456-2.637 2.635-2.637 2.635 0.643 0.461 1.269 0.968 1.848 1.546s1.083 1.203 1.546 1.848c0 0 2.181-2.179 2.635-2.635 0.458-0.458 0.29-1.176 0.082-1.419zM16 4.64c-7.16 0-12.962 5.802-12.962 12.96 0 7.16 5.802 12.962 12.962 12.962 7.157 0 12.96-5.802 12.96-12.962 0-7.157-5.803-12.96-12.96-12.96zM16 27.362c-5.389 0-9.76-4.37-9.76-9.76s4.37-9.76 9.76-9.76c5.39 0 9.762 4.37 9.762 9.76 0 5.389-4.371 9.76-9.762 9.76z"></path>
</symbol>
<symbol id="icon-trophy" viewBox="0 0 32 32">
<path d="M17.888 22.97c0-2.322 1.76-3.606 4.63-5.507 3.51-2.33 7.882-5.224 7.882-12.096 0-0.619-0.507-1.118-1.134-1.118h-5.488c-0.774-1.434-3.086-2.968-7.778-2.968-4.694 0-7.003 1.534-7.779 2.968h-5.49c-0.626 0-1.131 0.501-1.131 1.118 0 6.872 4.368 9.766 7.882 12.094 2.87 1.901 4.63 3.186 4.63 5.507v2.098c-3.014 0.334-5.23 1.45-5.23 2.778 0 1.59 3.187 2.878 7.118 2.878s7.118-1.288 7.118-2.878c0-1.328-2.216-2.443-5.23-2.778v-2.096zM22.331 14.88c0.906-1.918 1.626-4.522 1.741-8.394h4.016c-0.384 4.322-2.979 6.502-5.757 8.394zM16 3.242c4.371-0.003 6.078 1.784 6.077 2.446 0 0.669-1.706 2.453-6.077 2.456-4.371-0.002-6.078-1.786-6.078-2.454-0.002-0.662 1.707-2.451 6.078-2.448zM3.912 6.486h4.014c0.117 3.872 0.834 6.475 1.742 8.394-2.778-1.891-5.374-4.072-5.757-8.394z"></path>
</symbol>
<symbol id="icon-list-alt" viewBox="0 0 28 28">
<path d="M6 18.5v1c0 0.266-0.234 0.5-0.5 0.5h-1c-0.266 0-0.5-0.234-0.5-0.5v-1c0-0.266 0.234-0.5 0.5-0.5h1c0.266 0 0.5 0.234 0.5 0.5zM6 14.5v1c0 0.266-0.234 0.5-0.5 0.5h-1c-0.266 0-0.5-0.234-0.5-0.5v-1c0-0.266 0.234-0.5 0.5-0.5h1c0.266 0 0.5 0.234 0.5 0.5zM6 10.5v1c0 0.266-0.234 0.5-0.5 0.5h-1c-0.266 0-0.5-0.234-0.5-0.5v-1c0-0.266 0.234-0.5 0.5-0.5h1c0.266 0 0.5 0.234 0.5 0.5zM24 18.5v1c0 0.266-0.234 0.5-0.5 0.5h-15c-0.266 0-0.5-0.234-0.5-0.5v-1c0-0.266 0.234-0.5 0.5-0.5h15c0.266 0 0.5 0.234 0.5 0.5zM24 14.5v1c0 0.266-0.234 0.5-0.5 0.5h-15c-0.266 0-0.5-0.234-0.5-0.5v-1c0-0.266 0.234-0.5 0.5-0.5h15c0.266 0 0.5 0.234 0.5 0.5zM24 10.5v1c0 0.266-0.234 0.5-0.5 0.5h-15c-0.266 0-0.5-0.234-0.5-0.5v-1c0-0.266 0.234-0.5 0.5-0.5h15c0.266 0 0.5 0.234 0.5 0.5zM26 21.5v-13c0-0.266-0.234-0.5-0.5-0.5h-23c-0.266 0-0.5 0.234-0.5 0.5v13c0 0.266 0.234 0.5 0.5 0.5h23c0.266 0 0.5-0.234 0.5-0.5zM28 4.5v17c0 1.375-1.125 2.5-2.5 2.5h-23c-1.375 0-2.5-1.125-2.5-2.5v-17c0-1.375 1.125-2.5 2.5-2.5h23c1.375 0 2.5 1.125 2.5 2.5z"></path>
</symbol>
<symbol id="icon-dumbell" viewBox="0 0 640 512">
<path d="M112 96c0-17.7 14.3-32 32-32h16c17.7 0 32 14.3 32 32V224v64V416c0 17.7-14.3 32-32 32H144c-17.7 0-32-14.3-32-32V384H64c-17.7 0-32-14.3-32-32V288c-17.7 0-32-14.3-32-32s14.3-32 32-32V160c0-17.7 14.3-32 32-32h48V96zm416 0v32h48c17.7 0 32 14.3 32 32v64c17.7 0 32 14.3 32 32s-14.3 32-32 32v64c0 17.7-14.3 32-32 32H528v32c0 17.7-14.3 32-32 32H480c-17.7 0-32-14.3-32-32V288 224 96c0-17.7 14.3-32 32-32h16c17.7 0 32 14.3 32 32zM416 224v64H224V224H416z"/>
</symbol>
<symbol id="icon-cleaning" viewBox="0 0 32 32">
<path d="M24.75 18.688q0.563 0 0.563-0.563 0-0.438-0.313-0.563l-9-4-9 4q-0.313 0.125-0.313 0.5 0 0.625 0.563 0.625h2.063v-1.375h13.375v1.375h2.063zM26.063 15.125q1.938 0.813 1.938 2.938v0.063q0 1.375-0.938 2.281t-2.313 0.906h-2.063v8h-13.375v-8h-2.063q-1.375 0-2.313-0.906t-0.938-2.281v-0.063q0-2.063 1.938-2.875l8.75-3.938v-0.813q-1.375-0.5-2.125-1.781t-0.5-2.781q0.25-1.188 1.125-2.031t2.063-1.094q1.875-0.313 3.313 0.875t1.438 3.063h-2.688q0-0.563-0.375-0.969t-0.938-0.406-0.938 0.406-0.375 0.969 0.375 0.938 0.938 0.375 0.938 0.375 0.375 0.938v1.938z"></path>
</symbol>
<symbol id="icon-book" viewBox="0 0 36 32">
<path d="M7 4h-6c-0.55 0-1 0.45-1 1v22c0 0.55 0.45 1 1 1h6c0.55 0 1-0.45 1-1v-22c0-0.55-0.45-1-1-1zM6 10h-4v-2h4v2z"></path>
<path d="M17 4h-6c-0.55 0-1 0.45-1 1v22c0 0.55 0.45 1 1 1h6c0.55 0 1-0.45 1-1v-22c0-0.55-0.45-1-1-1zM16 10h-4v-2h4v2z"></path>
<path d="M23.909 5.546l-5.358 2.7c-0.491 0.247-0.691 0.852-0.443 1.343l8.999 17.861c0.247 0.491 0.852 0.691 1.343 0.443l5.358-2.7c0.491-0.247 0.691-0.852 0.443-1.343l-8.999-17.861c-0.247-0.491-0.852-0.691-1.343-0.443z"></path>
</symbol>
<symbol id="icon-aid-kit" viewBox="0 0 32 32">
<path d="M28 8h-6v-4c0-1.1-0.9-2-2-2h-8c-1.1 0-2 0.9-2 2v4h-6c-2.2 0-4 1.8-4 4v16c0 2.2 1.8 4 4 4h24c2.2 0 4-1.8 4-4v-16c0-2.2-1.8-4-4-4zM12 4h8v4h-8v-4zM24 22h-6v6h-4v-6h-6v-4h6v-6h4v6h6v4z"></path>
</symbol>
<symbol id="icon-briefcase" viewBox="0 0 32 32">
<path d="M30 8h-8v-2c0-1.1-0.9-2-2-2h-8c-1.1 0-2 0.9-2 2v2h-8c-1.1 0-2 0.9-2 2v18c0 1.1 0.9 2 2 2h28c1.1 0 2-0.9 2-2v-18c0-1.1-0.9-2-2-2zM12 6.004c0.001-0.001 0.002-0.003 0.004-0.004h7.993c0.001 0.001 0.003 0.002 0.004 0.004v1.996h-8v-1.996zM30 16h-4v3c0 0.55-0.45 1-1 1h-2c-0.55 0-1-0.45-1-1v-3h-12v3c0 0.55-0.45 1-1 1h-2c-0.55 0-1-0.45-1-1v-3h-4v-2h28v2z"></path>
</symbol>
<symbol id="icon-broom" viewBox="0 0 640 512">
<path d="M627.6 57.3c14-10.9 16.5-31 5.6-44.9s-31-16.5-44.9-5.6l-144 112-72 56-8.7 6.8-30.8-39.4c-3.7-4.8-9.8-7-15.8-5.8s-10.7 5.7-12.3 11.5l-12.5 46.3L371.1 295l48-.9c6.1-.1 11.5-3.7 14.1-9.1s1.9-11.9-1.8-16.7L403 231.9l8.6-6.7 72-56 144-112zM16.7 507.7c37.4 2.8 196.8 12 252.3-31.4c57.7-45.1 76.8-161.5 76.8-161.5L267.1 213.9s-117.6-9.6-175.3 35.5C69 267.1 50.5 304.1 36.3 344c-2.4 6.7 4.7 12.8 11 9.4L86.2 333c4.1-2.2 9.2-1.1 12 2.6s2.7 8.8-.4 12.3L24.4 430.4C13.2 442.9 5.5 458.1 2.4 474.5c-.9 4.8-1.6 8.9-2.2 12.1c-.9 5 .5 10.1 3.6 14.1s7.7 6.6 12.8 7z"/>
</symbol>
<symbol id="icon-lotus" viewBox="0 0  576 512">
<path d="M183.1 235.3c33.7 20.7 62.9 48.1 85.8 80.5c7 9.9 13.4 20.3 19.1 31c5.7-10.8 12.1-21.1 19.1-31c22.9-32.4 52.1-59.8 85.8-80.5C437.6 207.8 490.1 192 546 192h9.9c11.1 0 20.1 9 20.1 20.1C576 360.1 456.1 480 308.1 480H288 267.9C119.9 480 0 360.1 0 212.1C0 201 9 192 20.1 192H30c55.9 0 108.4 15.8 153.1 43.3zM301.5 37.6c15.7 16.9 61.1 71.8 84.4 164.6c-38 21.6-71.4 50.8-97.9 85.6c-26.5-34.8-59.9-63.9-97.9-85.6c23.2-92.8 68.6-147.7 84.4-164.6C278 33.9 282.9 32 288 32s10 1.9 13.5 5.6z"/>
</symbol>
<symbol id="icon-pencil" viewBox="0 0 32 32">
<path d="M27 0c2.761 0 5 2.239 5 5 0 1.126-0.372 2.164-1 3l-2 2-7-7 2-2c0.836-0.628 1.874-1 3-1zM2 23l-2 9 9-2 18.5-18.5-7-7-18.5 18.5zM22.362 11.362l-14 14-1.724-1.724 14-14 1.724 1.724z"></path>
</symbol>
<symbol id="icon-arrow-left2" viewBox="0 0 32 32">
<path d="M12.586 27.414l-10-10c-0.781-0.781-0.781-2.047 0-2.828l10-10c0.781-0.781 2.047-0.781 2.828 0s0.781 2.047 0 2.828l-6.586 6.586h19.172c1.105 0 2 0.895 2 2s-0.895 2-2 2h-19.172l6.586 6.586c0.39 0.39 0.586 0.902 0.586 1.414s-0.195 1.024-0.586 1.414c-0.781 0.781-2.047 0.781-2.828 0z"></path>
</symbol>
<symbol id="icon-checkmark" viewBox="0 0 32 32">
<path d="M27 4l-15 15-7-7-5 5 12 12 20-20z"></path>
</symbol>
<symbol id="icon-hour-glass" viewBox="0 0 32 32">
<path d="M22.781 16c4.305-2.729 7.219-7.975 7.219-14 0-0.677-0.037-1.345-0.109-2h-27.783c-0.072 0.655-0.109 1.323-0.109 2 0 6.025 2.914 11.271 7.219 14-4.305 2.729-7.219 7.975-7.219 14 0 0.677 0.037 1.345 0.109 2h27.783c0.072-0.655 0.109-1.323 0.109-2 0-6.025-2.914-11.271-7.219-14zM5 30c0-5.841 2.505-10.794 7-12.428v-3.143c-4.495-1.634-7-6.587-7-12.428v0h22c0 5.841-2.505 10.794-7 12.428v3.143c4.495 1.634 7 6.587 7 12.428h-22zM19.363 20.925c-2.239-1.27-2.363-2.918-2.363-3.918v-2.007c0-1 0.119-2.654 2.367-3.927 1.203-0.699 2.244-1.761 3.033-3.073h-12.799c0.79 1.313 1.832 2.376 3.036 3.075 2.239 1.27 2.363 2.918 2.363 3.918v2.007c0 1-0.119 2.654-2.367 3.927-2.269 1.318-3.961 3.928-4.472 7.073h15.677c-0.511-3.147-2.204-5.758-4.475-7.075z"></path>
</symbol>
<symbol id="icon-bin" viewBox="0 0 32 32">
<path d="M4 10v20c0 1.1 0.9 2 2 2h18c1.1 0 2-0.9 2-2v-20h-22zM10 28h-2v-14h2v14zM14 28h-2v-14h2v14zM18 28h-2v-14h2v14zM22 28h-2v-14h2v14z"></path>
<path d="M26.5 4h-6.5v-2.5c0-0.825-0.675-1.5-1.5-1.5h-7c-0.825 0-1.5 0.675-1.5 1.5v2.5h-6.5c-0.825 0-1.5 0.675-1.5 1.5v2.5h26v-2.5c0-0.825-0.675-1.5-1.5-1.5zM18 4h-6v-1.975h6v1.975z"></path>
</symbol>
<symbol id="icon-stopwatch-2" viewBox="0 0 32 32">
<path d="M16 6.038v-2.038h4v-2c0-1.105-0.895-2-2-2h-6c-1.105 0-2 0.895-2 2v2h4v2.038c-6.712 0.511-12 6.119-12 12.962 0 7.18 5.82 13 13 13s13-5.82 13-13c0-6.843-5.288-12.451-12-12.962zM22.071 26.071c-1.889 1.889-4.4 2.929-7.071 2.929s-5.182-1.040-7.071-2.929c-1.889-1.889-2.929-4.4-2.929-7.071s1.040-5.182 2.929-7.071c1.814-1.814 4.201-2.844 6.754-2.923l-0.677 9.813c-0.058 0.822 0.389 1.181 0.995 1.181s1.053-0.36 0.995-1.181l-0.677-9.813c2.552 0.079 4.94 1.11 6.754 2.923 1.889 1.889 2.929 4.4 2.929 7.071s-1.040 5.182-2.929 7.071z"></path>
</symbol>
<symbol id="icon-reload" viewBox="0 0 32 32">
<path d="M24 18c0 4.414-3.586 8-8 8s-8-3.586-8-8 3.586-8 8-8h4l0.023 4.020 6.012-6.020-6.012-6v4h-4.023c-6.625 0-12 5.375-12 12s5.375 12 12 12 12-5.375 12-12h-4z"></path>
</symbol>
<symbol id="icon-list" viewBox="0 0 32 32">
<path d="M27 0h-24c-1.65 0-3 1.35-3 3v26c0 1.65 1.35 3 3 3h24c1.65 0 3-1.35 3-3v-26c0-1.65-1.35-3-3-3zM26 28h-22v-24h22v24zM8 14h14v2h-14zM8 18h14v2h-14zM8 22h14v2h-14zM8 10h14v2h-14z"></path>
</symbol>
<symbol id="icon-arrow-right" viewBox="0 0 32 32">
<path d="M11.438 22.125l6.125-6.125-6.125-6.125 1.875-1.875 8 8-8 8z"></path>
</symbol>
<symbol id="icon-arrow-left" viewBox="0 0 32 32">
<path d="M20.563 22.125l-1.875 1.875-8-8 8-8 1.875 1.875-6.125 6.125z"></path>
</symbol>
</defs>
</svg>